<?xml version="1.0" encoding="utf-8"?>
<!-- Svg Vector Icons : http://www.onlinewebfonts.com/icon -->
<!DOCTYPE svg PUBLIC "-//W3C//DTD SVG 1.1//EN" "http://www.w3.org/Graphics/SVG/1.1/DTD/svg11.dtd">
<svg version="1.1" xmlns="http://www.w3.org/2000/svg" xmlns:xlink="http://www.w3.org/1999/xlink" x="0px" y="0px" viewBox="0 0 1000 1000" enable-background="new 0 0 1000 1000" xml:space="preserve">
<metadata> Svg Vector Icons : http://www.onlinewebfonts.com/icon </metadata>
<g><g transform="translate(0.000000,511.000000) scale(0.100000,-0.100000)"><path d="M7502.8,2894.8c-458.3-116.3-889.2-417.2-1153.6-804.8c-98-143.6-239.4-451.4-278.1-601.9l-29.7-120.8H3070.7H100V-673.2v-2040.5h3967h3967l4.6,870.9l6.8,870.9l182.4,25.1C9148.9-814.5,9844.3-55.3,9896.7,877.1c45.6,795.7-385.3,1529.8-1098.9,1871.8c-296.4,143.6-428.6,173.3-798,182.4C7737.6,2938.2,7648.7,2931.3,7502.8,2894.8z M8740.8,2074.1c0-11.4-11.4-47.9-27.4-79.8l-25.1-57h-316.9c-175.5,0-314.6-6.8-310.1-16c6.8-11.4,38.8-82.1,77.5-159.6l66.1-143.6h266.8c173.3,0,269-9.1,269-22.8s-16-54.7-34.2-91.2c-34.2-66.1-34.2-66.1-278.2-73l-241.7-6.8l-29.6-84.4c-68.4-200.6-262.2-346.5-497-378.5l-125.4-16l373.9-531.2l376.2-531.2l-109.4,6.9l-107.2,6.8L7641.9,501c-234.8,332.9-426.3,611-428.6,622.4c0,9.1,114,16,250.8,16c282.7,0,392.1,36.5,474.2,152.8c102.6,150.5,116.3,143.6-348.8,143.6c-232.6,0-421.8,6.8-421.8,16c0,9.1,11.4,50.2,27.4,91.2l27.4,75.2h394.4c216.6,0,394.4,4.6,394.4,11.4c0,34.2-70.7,143.6-130,196.1c-95.8,88.9-191.5,111.7-465.1,111.7c-136.8,0-248.5,4.6-248.5,9.1c0,2.3,11.4,38.8,25.1,79.8l25.1,70.7h761.5C8446.7,2096.9,8740.8,2087.8,8740.8,2074.1z M943.6,1178.1c0-2.3-148.2-152.8-330.6-335.1L282.4,512.4v337.4v335.1H613C795.4,1184.9,943.6,1182.6,943.6,1178.1z M6004.9,1016.2c0-155,47.9-506.1,82.1-592.8c13.7-34.2-189.2-36.5-2455.4-41l-2471.4-6.8l-6.8-84.4l-6.8-86.6h2507.9H6160l84.4-150.5c312.3-556.3,859.5-930.2,1484.2-1007.7l134.5-16v-786.6v-786.6l-3789.2-6.8l-3791.5-4.6v1290.4V26.8l565.4,579.1l563.1,579.1h2298.1h2295.8V1016.2z"/><path d="M1148.8-194.4v-79.8h1960.7h1960.7v79.8v79.8H3109.5H1148.8V-194.4z"/><path d="M1153.3-677.7l6.8-86.6l1215.2-6.8l1212.9-4.6v91.2v91.2h-1222H1146.5L1153.3-677.7z"/><path d="M1157.9-1101.8c-4.6-16-6.8-168.7-4.6-337.4l6.8-305.5l1545.8-6.8l1545.8-4.6l-6.9,335.1l-6.8,337.4l-1534.4,6.8C1458.8-1072.2,1167-1076.7,1157.9-1101.8z M2129.1-1414.1v-159.6h-399h-399v159.6v159.6h399h399V-1414.1z M4067-1414.1v-159.6h-877.8h-877.8v159.6v159.6h877.8H4067V-1414.1z"/><path d="M6020.9-2068.5c-9.1-6.8-16-47.9-16-91.2v-75.2h729.6h729.6v91.2v91.2h-713.6C6356-2052.5,6027.7-2059.3,6020.9-2068.5z"/></g></g>
</svg>