<?xml version="1.0" encoding="iso-8859-1"?>
<!-- Generator: Adobe Illustrator 19.0.0, SVG Export Plug-In . SVG Version: 6.00 Build 0)  -->
<svg version="1.1" id="Layer_1" xmlns="http://www.w3.org/2000/svg" xmlns:xlink="http://www.w3.org/1999/xlink" x="0px" y="0px"
	 viewBox="0 0 512 512" style="enable-background:new 0 0 512 512;" xml:space="preserve">
<g>
	<g>
		<path d="M424.851,65.362h-21.787c-4.512,0-8.17,3.658-8.17,8.17s3.658,8.17,8.17,8.17h21.787
			c13.516,0,24.511,10.995,24.511,24.511v364.936c0,13.516-10.995,24.511-24.511,24.511H87.149
			c-13.516,0-24.511-10.995-24.511-24.511V106.213c0-13.516,10.995-24.511,24.511-24.511h21.787c4.512,0,8.17-3.658,8.17-8.17
			s-3.658-8.17-8.17-8.17H87.149c-22.526,0-40.851,18.325-40.851,40.851v364.936c0,22.526,18.325,40.851,40.851,40.851h337.702
			c22.526,0,40.851-18.325,40.851-40.851V106.213C465.702,83.687,447.377,65.362,424.851,65.362z"/>
	</g>
</g>
<g>
	<g>
		<path d="M337.702,32.681h-30.026C298.297,12.914,278.211,0,256,0s-42.296,12.914-51.676,32.681h-30.026
			c-22.526,0-40.851,18.325-40.851,40.851v65.362c0,4.512,3.658,8.17,8.17,8.17h228.766c4.512,0,8.17-3.658,8.17-8.17V73.532
			C378.553,51.006,360.228,32.681,337.702,32.681z M362.213,130.723H149.787V73.532c0-13.516,10.995-24.511,24.511-24.511h35.482
			c3.462,0,6.549-2.182,7.703-5.447C223.242,27.285,238.721,16.34,256,16.34c17.279,0,32.759,10.945,38.518,27.234
			c1.155,3.265,4.241,5.447,7.703,5.447h35.482c13.516,0,24.511,10.995,24.511,24.511V130.723z"/>
	</g>
</g>
<g>
	<g>
		<path d="M424.851,98.043h-21.787c-4.512,0-8.17,3.658-8.17,8.17s3.658,8.17,8.17,8.17h13.617v348.596H95.319V114.383h13.617
			c4.512,0,8.17-3.658,8.17-8.17s-3.658-8.17-8.17-8.17H87.149c-4.512,0-8.17,3.658-8.17,8.17v364.936c0,4.512,3.658,8.17,8.17,8.17
			h337.702c4.512,0,8.17-3.658,8.17-8.17V106.213C433.021,101.701,429.363,98.043,424.851,98.043z"/>
	</g>
</g>
<g>
	<g>
		<path d="M256,32.681c-13.516,0-24.511,10.995-24.511,24.511c0,13.516,10.996,24.511,24.511,24.511s24.511-10.995,24.511-24.511
			C280.511,43.676,269.516,32.681,256,32.681z M256,65.362c-4.506,0-8.17-3.665-8.17-8.17c0-4.506,3.665-8.17,8.17-8.17
			s8.17,3.665,8.17,8.17C264.17,61.697,260.506,65.362,256,65.362z"/>
	</g>
</g>
<g>
	<g>
		<path d="M372.707,278.039c-0.94-2.893-3.41-5.024-6.409-5.532l-70.12-11.848l-32.936-63.026c-1.409-2.696-4.198-4.386-7.241-4.386
			c-3.043,0-5.832,1.69-7.241,4.386l-32.936,63.026l-70.12,11.848c-2.999,0.507-5.47,2.637-6.409,5.532
			c-0.94,2.893-0.195,6.069,1.934,8.242l49.764,50.8l-10.4,70.349c-0.444,3.009,0.819,6.017,3.28,7.804
			c2.461,1.789,5.711,2.062,8.436,0.708L256,384.314l63.692,31.63c1.15,0.571,2.394,0.853,3.633,0.853
			c1.696,0,3.381-0.527,4.803-1.561c2.461-1.788,3.725-4.795,3.28-7.804l-10.4-70.349l49.764-50.8
			C372.902,284.108,373.647,280.932,372.707,278.039z M306.496,328.545c-1.789,1.826-2.62,4.384-2.246,6.912l8.707,58.896
			l-53.323-26.481c-1.145-0.569-2.389-0.853-3.634-0.853c-1.245,0-2.489,0.284-3.634,0.853l-53.323,26.481l8.707-58.896
			c0.374-2.528-0.458-5.086-2.246-6.912l-41.663-42.531l58.705-9.92c2.52-0.426,4.696-2.007,5.879-4.271L256,219.058l27.575,52.767
			c1.183,2.266,3.36,3.846,5.879,4.271l58.705,9.92L306.496,328.545z"/>
	</g>
</g>
<g>
</g>
<g>
</g>
<g>
</g>
<g>
</g>
<g>
</g>
<g>
</g>
<g>
</g>
<g>
</g>
<g>
</g>
<g>
</g>
<g>
</g>
<g>
</g>
<g>
</g>
<g>
</g>
<g>
</g>
</svg>
