<?xml version="1.0" ?><!DOCTYPE svg  PUBLIC '-//W3C//DTD SVG 1.1//EN'  'http://www.w3.org/Graphics/SVG/1.1/DTD/svg11.dtd'><svg enable-background="new 0 0 128 128" id="Слой_1" version="1.1" viewBox="0 0 128 128" xml:space="preserve" xmlns="http://www.w3.org/2000/svg" xmlns:xlink="http://www.w3.org/1999/xlink"><g><path d="M103.982,18H24.018C20.7,18,18,20.7,18,24.018v79.965C18,107.3,20.7,110,24.018,110H64h0.002h39.98   c3.318,0,6.018-2.7,6.018-6.018V24.018C110,20.7,107.3,18,103.982,18z M20,24.018C20,21.802,21.802,20,24.018,20h38.818l0.079,43   H20V24.018z M24.018,108c-2.215,0-4.018-1.802-4.018-4.018V65h42.919l0.079,43H24.018z M108,103.982   c0,2.215-1.802,4.018-4.018,4.018H64.998l-0.079-43H108V103.982z M108,63H64.915l-0.079-43h39.147c2.215,0,4.018,1.802,4.018,4.018   V63z" fill="#313638"/><path d="M51.546,32.454c-0.391-0.391-1.023-0.391-1.414,0L42,40.586l-8.132-8.132c-0.391-0.391-1.023-0.391-1.414,0   s-0.391,1.023,0,1.414L40.586,42l-8.132,8.132c-0.391,0.391-0.391,1.023,0,1.414c0.195,0.195,0.451,0.293,0.707,0.293   s0.512-0.098,0.707-0.293L42,43.414l8.132,8.132c0.195,0.195,0.451,0.293,0.707,0.293s0.512-0.098,0.707-0.293   c0.391-0.391,0.391-1.023,0-1.414L43.414,42l8.132-8.132C51.937,33.478,51.937,32.845,51.546,32.454z" fill="#313638"/><path d="M97,41H77c-0.552,0-1,0.448-1,1s0.448,1,1,1h20c0.552,0,1-0.448,1-1S97.552,41,97,41z" fill="#313638"/><path d="M52,86H32c-0.552,0-1,0.448-1,1s0.448,1,1,1h20c0.552,0,1-0.448,1-1S52.552,86,52,86z" fill="#313638"/><path d="M78,88h9v9c0,0.552,0.448,1,1,1s1-0.448,1-1v-9h9c0.552,0,1-0.448,1-1s-0.448-1-1-1h-9v-9   c0-0.552-0.448-1-1-1s-1,0.448-1,1v9h-9c-0.552,0-1,0.448-1,1S77.448,88,78,88z" fill="#313638"/><path d="M87,38c2.206,0,4-1.794,4-4s-1.794-4-4-4s-4,1.794-4,4S84.794,38,87,38z M87,32c1.103,0,2,0.897,2,2   s-0.897,2-2,2s-2-0.897-2-2S85.897,32,87,32z" fill="#313638"/><path d="M87,46c-2.206,0-4,1.794-4,4s1.794,4,4,4s4-1.794,4-4S89.206,46,87,46z M87,52c-1.103,0-2-0.897-2-2   s0.897-2,2-2s2,0.897,2,2S88.103,52,87,52z" fill="#313638"/></g></svg>