<?xml version="1.0" encoding="utf-8"?>
<!-- Generator: Adobe Illustrator 19.0.0, SVG Export Plug-In . SVG Version: 6.00 Build 0)  -->
<svg version="1.1" id="Layer_1" xmlns="http://www.w3.org/2000/svg" xmlns:xlink="http://www.w3.org/1999/xlink" x="0px" y="0px"
	 viewBox="0 0 121.7 116.5" style="enable-background:new 0 0 121.7 116.5;" xml:space="preserve">
<style type="text/css">
	.st0{display:none;}
	.st1{display:inline;fill:#C1C0C0;}
	.st2{display:inline;fill:#5F97CD;}
	.st3{display:inline;fill:#FFFFFF;}
	.st4{fill:#5D5D5D;}
	.st5{fill:#6097CC;}
	.st6{fill:#FFFFFF;}
	.st7{display:inline;}
	.st8{fill:#5F97CD;}
	.st9{display:inline;fill:#6097CC;}
</style>
<g id="XMLID_128_" class="st0">
	<path id="XMLID_140_" class="st1" d="M59.4,113.9C29,113.9,4.3,89.1,4.3,58.8C4.3,28.4,29,3.7,59.4,3.7s55.1,24.7,55.1,55.1
		C114.5,89.1,89.8,113.9,59.4,113.9z M59.4,5.7C30.1,5.7,6.3,29.5,6.3,58.8c0,29.3,23.8,53.1,53.1,53.1s53.1-23.8,53.1-53.1
		C112.5,29.5,88.7,5.7,59.4,5.7z"/>
	<path id="XMLID_141_" class="st1" d="M93.8,101.3c-0.6,0-1-0.4-1-1v-3.4c0-4.8-2.6-9.3-6.9-11.9l-16-9.1c-0.5-0.3-0.6-0.9-0.4-1.4
		c0.3-0.5,0.9-0.6,1.4-0.4l16,9.1c4.9,3,7.9,8.1,7.9,13.7v3.4C94.8,100.9,94.4,101.3,93.8,101.3z"/>
	<path id="XMLID_142_" class="st1" d="M24.9,101.3c-0.6,0-1-0.4-1-1v-3.4c0-5.6,3-10.8,7.9-13.7l16-9.1c0.5-0.3,1.1-0.1,1.4,0.4
		c0.3,0.5,0.1,1.1-0.4,1.4l-16,9.1c-4.2,2.5-6.9,7-6.9,11.9v3.4C25.9,100.9,25.5,101.3,24.9,101.3z"/>
	<path id="XMLID_145_" class="st1" d="M59.4,79.4c-11.4,0-20.7-9.3-20.7-20.7v-9.8c0-11.4,9.3-20.7,20.7-20.7
		c11.4,0,20.7,9.3,20.7,20.7v9.8C80,70.2,70.8,79.4,59.4,79.4z M59.4,30.2c-10.3,0-18.7,8.4-18.7,18.7v9.8
		c0,10.3,8.4,18.7,18.7,18.7c10.3,0,18.7-8.4,18.7-18.7v-9.8C78,38.6,69.7,30.2,59.4,30.2z"/>
	<path id="XMLID_146_" class="st2" d="M100.9,75.5c9.9,0,17.9,8,17.9,17.9c0,9.9-8,17.9-17.9,17.9c-9.9,0-17.9-8-17.9-17.9
		C82.9,83.5,91,75.5,100.9,75.5z"/>
	<rect id="XMLID_147_" x="91.1" y="92.8" class="st3" width="19.7" height="1.2"/>
	<rect id="XMLID_148_" x="100.1" y="83.4" class="st3" width="1.6" height="20.1"/>
</g>
<g id="XMLID_153_">
	<path id="XMLID_159_" class="st4" d="M59.4,113.9C29,113.9,4.3,89.1,4.3,58.8C4.3,28.4,29,3.7,59.4,3.7s55.1,24.7,55.1,55.1
		C114.5,89.1,89.8,113.9,59.4,113.9z M59.4,5.7C30.1,5.7,6.3,29.5,6.3,58.8c0,29.3,23.8,53.1,53.1,53.1s53.1-23.8,53.1-53.1
		C112.5,29.5,88.7,5.7,59.4,5.7z"/>
	<path id="XMLID_160_" class="st4" d="M93.8,101.3c-0.6,0-1-0.4-1-1v-3.4c0-4.8-2.6-9.3-6.9-11.9l-16-9.1c-0.5-0.3-0.6-0.9-0.4-1.4
		c0.3-0.5,0.9-0.6,1.4-0.4l16,9.1c4.9,3,7.9,8.1,7.9,13.7v3.4C94.8,100.9,94.4,101.3,93.8,101.3z"/>
	<path id="XMLID_161_" class="st4" d="M24.9,101.3c-0.6,0-1-0.4-1-1v-3.4c0-5.6,3-10.8,7.9-13.7l16-9.1c0.5-0.3,1.1-0.1,1.4,0.4
		c0.3,0.5,0.1,1.1-0.4,1.4l-16,9.1c-4.2,2.5-6.9,7-6.9,11.9v3.4C25.9,100.9,25.5,101.3,24.9,101.3z"/>
	<path id="XMLID_173_" class="st4" d="M59.4,79.4c-11.4,0-20.7-9.3-20.7-20.7v-9.8c0-11.4,9.3-20.7,20.7-20.7
		c11.4,0,20.7,9.3,20.7,20.7v9.8C80,70.2,70.8,79.4,59.4,79.4z M59.4,30.2c-10.3,0-18.7,8.4-18.7,18.7v9.8
		c0,10.3,8.4,18.7,18.7,18.7c10.3,0,18.7-8.4,18.7-18.7v-9.8C78,38.6,69.7,30.2,59.4,30.2z"/>
	<path id="XMLID_174_" class="st5" d="M100.9,75.5c9.9,0,17.9,8,17.9,17.9c0,9.9-8,17.9-17.9,17.9c-9.9,0-17.9-8-17.9-17.9
		C82.9,83.5,91,75.5,100.9,75.5z"/>
	<rect id="XMLID_175_" x="91.1" y="92.8" class="st6" width="19.7" height="1.2"/>
	<rect id="XMLID_176_" x="100.1" y="83.4" class="st6" width="1.6" height="20.1"/>
</g>
<g id="XMLID_93_" class="st0">
	<g id="XMLID_98_" class="st7">
		<g id="XMLID_107_">
			<path id="XMLID_123_" class="st4" d="M35.4,60.2c4.9,0,8.8-3.9,8.8-8.8v-3.5c0-4.9-3.9-8.8-8.8-8.8c-4.9,0-8.8,3.9-8.8,8.8v3.5
				C26.6,56.3,30.5,60.2,35.4,60.2z M30.1,47.9c0-3,2.3-5.3,5.3-5.3s5.3,2.3,5.3,5.3v3.5c0,3-2.3,5.3-5.3,5.3s-5.3-2.3-5.3-5.3V47.9
				z"/>
		</g>
		<g id="XMLID_106_">
			<path id="XMLID_122_" class="st4" d="M65.4,54.9c0,1.1,0.7,1.8,1.8,1.8h28.2c1.1,0,1.8-0.7,1.8-1.8c0-1.1-0.7-1.8-1.8-1.8H67.1
				C66.1,53.2,65.4,53.9,65.4,54.9z"/>
		</g>
		<g id="XMLID_105_">
			<path id="XMLID_121_" class="st4" d="M84.7,67.3H67.1c-1.1,0-1.8,0.7-1.8,1.8c0,1.1,0.7,1.8,1.8,1.8h17.6c1.1,0,1.8-0.7,1.8-1.8
				C86.5,68,85.8,67.3,84.7,67.3z"/>
		</g>
		<g id="XMLID_102_">
			<path id="XMLID_120_" class="st4" d="M42.4,63.7H28.4c-6.9,0-12.3,5.5-12.3,12.3c0,1.1,0.7,1.8,1.8,1.8H53c1.1,0,1.8-0.7,1.8-1.8
				C54.8,69.2,49.3,63.7,42.4,63.7z M19.7,74.3c0.9-4,4.4-7,8.6-7h14.1c4.2,0,7.8,3,8.6,7H19.7z"/>
		</g>
		<g id="XMLID_99_">
			<path id="XMLID_110_" class="st4" d="M109.4,10.9H91.8c-1.1,0-1.8,0.7-1.8,1.8c0,3-2.3,5.3-5.3,5.3s-5.3-2.3-5.3-5.3
				c0-1.1-0.7-1.8-1.8-1.8H63.6c-1.1,0-1.8,0.7-1.8,1.8c0,3-2.3,5.3-5.3,5.3c-3,0-5.3-2.3-5.3-5.3c0-1.1-0.7-1.8-1.8-1.8H35.4
				c-1.1,0-1.8,0.7-1.8,1.8c0,3-2.3,5.3-5.3,5.3c-3,0-5.3-2.3-5.3-5.3c0-1.1-0.7-1.8-1.8-1.8H3.7c-1.1,0-1.8,0.7-1.8,1.8v84.6
				c0,1.1,0.7,1.8,1.8,1.8h105.7c1,0,1.8-0.7,1.8-1.8V12.6C111.2,11.6,110.5,10.9,109.4,10.9z M107.6,95.5H5.4V14.4h14.3
				c0.9,4.1,4.4,7.1,8.6,7.1c4.2,0,7.7-3,8.6-7.1h10.9c0.9,4.1,4.4,7.1,8.6,7.1c4.2,0,7.8-3,8.6-7.1h10.9c0.9,4.1,4.4,7.1,8.6,7.1
				s7.8-3,8.6-7.1h14.3V95.5z"/>
		</g>
	</g>
	<g id="XMLID_97_" class="st7">
		<path id="XMLID_92_" class="st8" d="M102.7,70.8c9.9,0,17.9,8,17.9,17.9c0,9.9-8,17.9-17.9,17.9c-9.9,0-17.9-8-17.9-17.9
			C84.7,78.8,92.8,70.8,102.7,70.8z"/>
	</g>
	<g id="XMLID_96_" class="st7">
		<path id="XMLID_117_" class="st6" d="M108.1,86.5H97.3V83c0-3,2.4-5.4,5.4-5.4c3,0,5.4,2.4,5.4,5.4V86.5z M98.5,85.2h8.3V83
			c0-2.3-1.9-4.1-4.1-4.1c-2.3,0-4.1,1.9-4.1,4.1V85.2z"/>
	</g>
	<g id="XMLID_95_" class="st7">
		<path id="XMLID_114_" class="st6" d="M110.9,99.8H94.4V85.2h16.5V99.8z M95.7,98.6h14V86.5h-14V98.6z"/>
	</g>
	<g id="XMLID_94_" class="st7">
		<path id="XMLID_111_" class="st6" d="M102.7,94.1c-1.4,0-2.5-1.1-2.5-2.5c0-1.4,1.1-2.5,2.5-2.5c1.4,0,2.5,1.1,2.5,2.5
			C105.2,93,104.1,94.1,102.7,94.1z M102.7,90.3c-0.7,0-1.3,0.6-1.3,1.3c0,0.7,0.6,1.3,1.3,1.3c0.7,0,1.3-0.6,1.3-1.3
			C103.9,90.9,103.4,90.3,102.7,90.3z"/>
	</g>
</g>
<g id="XMLID_124_" class="st0">
	<path id="XMLID_129_" class="st1" d="M35.4,60.2c4.9,0,8.8-3.9,8.8-8.8v-3.5c0-4.9-3.9-8.8-8.8-8.8c-4.9,0-8.8,3.9-8.8,8.8v3.5
		C26.6,56.3,30.5,60.2,35.4,60.2z M30.1,47.9c0-3,2.3-5.3,5.3-5.3c3,0,5.3,2.3,5.3,5.3v3.5c0,3-2.3,5.3-5.3,5.3
		c-3,0-5.3-2.3-5.3-5.3V47.9z"/>
	<path id="XMLID_130_" class="st1" d="M65.4,54.9c0,1.1,0.7,1.8,1.8,1.8h28.2c1.1,0,1.8-0.7,1.8-1.8c0-1.1-0.7-1.8-1.8-1.8H67.1
		C66.1,53.2,65.4,53.9,65.4,54.9z"/>
	<path id="XMLID_131_" class="st1" d="M84.7,67.3H67.1c-1.1,0-1.8,0.7-1.8,1.8c0,1.1,0.7,1.8,1.8,1.8h17.6c1.1,0,1.8-0.7,1.8-1.8
		C86.5,68,85.8,67.3,84.7,67.3z"/>
	<path id="XMLID_134_" class="st1" d="M42.4,63.7H28.4c-6.9,0-12.3,5.5-12.3,12.3c0,1.1,0.7,1.8,1.8,1.8H53c1.1,0,1.8-0.7,1.8-1.8
		C54.8,69.2,49.3,63.7,42.4,63.7z M19.7,74.3c0.9-4,4.4-7,8.6-7h14.1c4.2,0,7.8,3,8.6,7H19.7z"/>
	<path id="XMLID_137_" class="st1" d="M109.4,10.9H91.8c-1.1,0-1.8,0.7-1.8,1.8c0,3-2.3,5.3-5.3,5.3c-3,0-5.3-2.3-5.3-5.3
		c0-1.1-0.7-1.8-1.8-1.8H63.6c-1.1,0-1.8,0.7-1.8,1.8c0,3-2.3,5.3-5.3,5.3c-3,0-5.3-2.3-5.3-5.3c0-1.1-0.7-1.8-1.8-1.8H35.4
		c-1.1,0-1.8,0.7-1.8,1.8c0,3-2.3,5.3-5.3,5.3c-3,0-5.3-2.3-5.3-5.3c0-1.1-0.7-1.8-1.8-1.8H3.7c-1.1,0-1.8,0.7-1.8,1.8v84.6
		c0,1.1,0.7,1.8,1.8,1.8h105.7c1,0,1.8-0.7,1.8-1.8V12.6C111.2,11.6,110.5,10.9,109.4,10.9z M107.6,95.5H5.4V14.4h14.3
		c0.9,4.1,4.4,7.1,8.6,7.1c4.2,0,7.7-3,8.6-7.1h10.9c0.9,4.1,4.4,7.1,8.6,7.1c4.2,0,7.8-3,8.6-7.1h10.9c0.9,4.1,4.4,7.1,8.6,7.1
		c4.2,0,7.8-3,8.6-7.1h14.3V95.5z"/>
	<path id="XMLID_149_" class="st9" d="M102.7,70.8c9.9,0,17.9,8,17.9,17.9c0,9.9-8,17.9-17.9,17.9c-9.9,0-17.9-8-17.9-17.9
		C84.7,78.8,92.8,70.8,102.7,70.8z"/>
	<path id="XMLID_150_" class="st3" d="M102.7,78.2v-0.6c-3,0-5.4,2.4-5.4,5.4v3.5h10.8V83c0-3-2.4-5.4-5.4-5.4V78.2v0.6
		c1.1,0,2.2,0.5,2.9,1.2c0.8,0.8,1.2,1.8,1.2,2.9v2.2h-8.3l0-2.2c0-1.1,0.5-2.2,1.2-2.9c0.8-0.8,1.8-1.2,2.9-1.2V78.2z"/>
	<polygon id="XMLID_151_" class="st3" points="95,85.8 95,86.5 109.7,86.5 109.7,98.6 95.7,98.6 95.7,85.8 95,85.8 95,86.5 95,85.8 
		94.4,85.8 94.4,99.8 110.9,99.8 110.9,85.2 94.4,85.2 94.4,85.8 	"/>
	<path id="XMLID_152_" class="st3" d="M102.7,89.7v0.6c0.7,0,1.3,0.6,1.3,1.3c0,0.7-0.6,1.3-1.3,1.3c-0.7,0-1.3-0.6-1.3-1.3
		c0-0.7,0.6-1.3,1.3-1.3V89.7V89c-1.4,0-2.5,1.1-2.5,2.5c0,1.4,1.1,2.5,2.5,2.5c1.4,0,2.5-1.1,2.5-2.5c0-1.4-1.1-2.5-2.5-2.5V89.7z"
		/>
</g>
</svg>
