<?xml version="1.0" encoding="utf-8"?>
<!-- Svg Vector Icons : http://www.onlinewebfonts.com/icon -->
<!DOCTYPE svg PUBLIC "-//W3C//DTD SVG 1.1//EN" "http://www.w3.org/Graphics/SVG/1.1/DTD/svg11.dtd">
<svg version="1.1" xmlns="http://www.w3.org/2000/svg" xmlns:xlink="http://www.w3.org/1999/xlink" x="0px" y="0px" viewBox="0 0 1000 1000" enable-background="new 0 0 1000 1000" xml:space="preserve">
<metadata> Svg Vector Icons : http://www.onlinewebfonts.com/icon </metadata>
<g><path d="M990,867.6c0,72.1-60.9,122.4-127.8,122.4H137.8C64.8,990,10,930,10,863.9V257.1C10,191,64.8,131,137.8,131l68.2,1.6v49h-73.5C96,181.7,59,219.1,59,255.2v49h882v-49c0-36-37-73.5-73.5-73.5h-98v-49l86.6-1.6c73.1,0,127.8,60,133.9,126.1V867.6z M941,353.2H59v514.5c0,36,37,73.5,73.5,73.5H843c0,0,98-10.4,98-73.5V353.2z M512,843.2c-30.6,0-36.7-41.7-36.7-70.4V583.3h-73.4c-12.2,0-24.5-5.8-24.5-28.7s6.1-23,36.7-28.7l18.3-5.8c61.1-11.5,42.8-68.9,91.7-68.9c12.2,0,24.5,5.8,24.5,34.4v287C548.7,795.7,542.6,843.2,512,843.2z M700.1,206.4h-8.2c-8.2,0-20.5-11.6-20.5-23.1V38.9c0-17.3,8.2-28.9,20.5-28.9h8.2c12.3,0,20.5,11.6,20.5,28.9v138.7C720.6,194.9,712.4,206.4,700.1,206.4z M353,132.6h269.5V182H353V132.6z M283.7,206.4h-8.2c-12.3,0-20.5-11.6-20.5-23.1V38.9c0-17.3,8.2-28.9,20.5-28.9h8.2c12.3,0,20.5,11.6,20.5,28.9v138.7C304.2,194.9,296,206.4,283.7,206.4z"/></g>
</svg>