<?xml version="1.0" encoding="utf-8"?>
<!-- Svg Vector Icons : http://www.onlinewebfonts.com/icon -->
<!DOCTYPE svg PUBLIC "-//W3C//DTD SVG 1.1//EN" "http://www.w3.org/Graphics/SVG/1.1/DTD/svg11.dtd">
<svg version="1.1" xmlns="http://www.w3.org/2000/svg" xmlns:xlink="http://www.w3.org/1999/xlink" x="0px" y="0px" viewBox="0 0 1000 1000" enable-background="new 0 0 1000 1000" xml:space="preserve">
<metadata> Svg Vector Icons : http://www.onlinewebfonts.com/icon </metadata>
<g><path d="M806.8,990H193.2c-67.8,0-122.7-54.8-122.7-122.5V255c0-67.7,55-122.5,122.7-122.5h92.1V71.2h82.7C394.4,34.8,443.4,10,500,10c56.6,0,105.6,24.8,132.1,61.2h82.6v61.3h92.1c67.8,0,122.7,54.8,122.7,122.5v612.5C929.6,935.2,874.6,990,806.8,990z M653.4,132.5h-68.2c0-33.8-38.2-61.2-85.2-61.2c-47.1,0-85.2,27.4-85.2,61.2h-68.2V255h306.8V132.5z M868.2,255c0-33.8-27.5-61.3-61.4-61.3h-92.1v122.5H285.2V193.8h-92.1c-33.9,0-61.4,27.4-61.4,61.3v612.5c0,33.8,27.5,61.3,61.4,61.3h613.7c33.9,0,61.4-27.4,61.4-61.3L868.2,255L868.2,255z M714.8,806.3H285.2c-16.9,0-30.7-13.7-30.7-30.6c0-16.9,13.7-30.6,30.7-30.6h429.6c17,0,30.7,13.7,30.7,30.6C745.5,792.5,731.7,806.3,714.8,806.3z M714.8,653.1H285.2c-16.9,0-30.7-13.7-30.7-30.6c0-16.9,13.7-30.6,30.7-30.6h429.6c17,0,30.7,13.7,30.7,30.6C745.5,639.4,731.7,653.1,714.8,653.1z M714.8,500H285.2c-16.9,0-30.7-13.7-30.7-30.6c0-16.9,13.7-30.6,30.7-30.6h429.6c17,0,30.7,13.7,30.7,30.6C745.5,486.3,731.7,500,714.8,500z"/></g>
</svg>