<?xml version="1.0"?>
<svg xmlns="http://www.w3.org/2000/svg" viewBox="0 0 50 50">
    <path style="line-height:normal;text-indent:0;text-align:start;text-decoration-line:none;text-decoration-style:solid;text-decoration-color:#000;text-transform:none;block-progression:tb;isolation:auto;mix-blend-mode:normal" d="M 12 0 C 10.906937 0 10 0.9069372 10 2 L 10 4 L 4 4 C 2.9069372 4 2 4.9069372 2 6 L 2 23 A 1.0001 1.0001 0 1 0 4 23 L 4 16 L 46 16 L 46 46 L 4 46 L 4 38 A 1.0001 1.0001 0 1 0 2 38 L 2 46 C 2 47.093063 2.9069372 48 4 48 L 46 48 C 47.093063 48 48 47.093063 48 46 L 48 6 C 48 4.9069372 47.093063 4 46 4 L 40 4 L 40 2 C 40 0.9069372 39.093063 0 38 0 L 36 0 C 34.906937 0 34 0.9069372 34 2 L 34 4 L 16 4 L 16 2 C 16 0.9069372 15.093063 0 14 0 L 12 0 z M 12 2 L 14 2 L 14 8 L 12 8 L 12 5.1679688 A 1.0001 1.0001 0 0 0 12 4.8417969 L 12 2 z M 36 2 L 38 2 L 38 4.8320312 A 1.0001 1.0001 0 0 0 38 5.1582031 L 38 8 L 36 8 L 36 2 z M 4 6 L 10 6 L 10 8 C 10 9.0930628 10.906937 10 12 10 L 14 10 C 15.093063 10 16 9.0930628 16 8 L 16 6 L 34 6 L 34 8 C 34 9.0930628 34.906937 10 36 10 L 38 10 C 39.093063 10 40 9.0930628 40 8 L 40 6 L 46 6 L 46 14 L 4 14 L 4 6 z M 16.8125 22.136719 A 1.0001 1.0001 0 0 0 16.078125 23.837891 L 21.013672 29 L 3 29 A 1.0001 1.0001 0 1 0 3 31 L 20.535156 31 L 16.076172 35.662109 A 1.0001373 1.0001373 0 1 0 17.521484 37.044922 L 23.365234 30.935547 A 1.0001 1.0001 0 0 0 23.964844 30.306641 L 24.498047 29.75 L 17.523438 22.455078 A 1.0001 1.0001 0 0 0 16.8125 22.136719 z"/>
</svg>
