<?xml version="1.0" encoding="utf-8"?>
<!-- Svg Vector Icons : http://www.onlinewebfonts.com/icon -->
<!DOCTYPE svg PUBLIC "-//W3C//DTD SVG 1.1//EN" "http://www.w3.org/Graphics/SVG/1.1/DTD/svg11.dtd">
<svg version="1.1" xmlns="http://www.w3.org/2000/svg" xmlns:xlink="http://www.w3.org/1999/xlink" x="0px" y="0px" viewBox="0 0 1000 1000" enable-background="new 0 0 1000 1000" xml:space="preserve">
<metadata> Svg Vector Icons : http://www.onlinewebfonts.com/icon </metadata>
<g><path d="M500,200.5c-97,0-175.6,79.2-175.6,176.9c0,97.7,78.6,177,175.6,177c97,0,175.6-79.2,175.6-177S597,200.5,500,200.5z M500,500c-67.1,0-121.6-54.9-121.6-122.5c0-67.7,54.4-122.5,121.6-122.5c67.2,0,121.6,54.8,121.6,122.5C621.6,445.1,567.2,500,500,500z M500,10c-201.4,0-364.7,164.5-364.7,367.5c0,203,303.1,612.5,364.7,612.5c58.8,0,364.8-409.6,364.8-612.5C864.8,174.5,701.4,10,500,10z M500,898.1c-51.4,0-303.9-345.6-303.9-516.8C196,210,332.1,71.2,500,71.2c167.9,0,304,138.8,304,310.1C804,552.6,549.1,898.1,500,898.1z"/></g>
</svg>