<?xml version="1.0" encoding="utf-8"?>
<!-- Svg Vector Icons : http://www.onlinewebfonts.com/icon -->
<!DOCTYPE svg PUBLIC "-//W3C//DTD SVG 1.1//EN" "http://www.w3.org/Graphics/SVG/1.1/DTD/svg11.dtd">
<svg version="1.1" xmlns="http://www.w3.org/2000/svg" xmlns:xlink="http://www.w3.org/1999/xlink" x="0px" y="0px" viewBox="0 0 1000 1000" enable-background="new 0 0 1000 1000" xml:space="preserve">
<metadata> Svg Vector Icons : http://www.onlinewebfonts.com/icon </metadata>
<g><path d="M498.7,171.8c-99,0-179.2,80.2-179.2,179.2s80.2,179.2,179.2,179.2c99,0,179.2-80.3,179.2-179.2S597.7,171.8,498.7,171.8z M498.7,486.4c-74.7,0-135.3-60.6-135.3-135.3S424,215.7,498.7,215.7c74.7,0,135.3,60.6,135.3,135.3S573.5,486.4,498.7,486.4z"/><path d="M505.3,10c-210.5,0-370.1,183.3-319.6,387.5c58.3,235.2,316.1,495.8,316.1,495.8s252.8-263.8,312-494.4C866.3,195.2,698.7,10,505.3,10z M771.4,390.9c-51.6,202.4-269.9,438.8-269.9,438.8S278.7,592,228.1,389.6c-44.7-179,102.2-336.4,273.6-336.4C673.1,53.2,817,212.1,771.4,390.9z"/><path d="M654.1,793.6c73.5,16.6,122.1,43.3,122.1,67.9c0,41.5-124.3,84.1-276.2,84.1c-151.9,0-273.1-44.5-273.1-84.1c0-25.5,48.1-52.3,121.7-68.6l-9.2-42.9c-93.8,21.9-155.9,62.9-155.9,112.4C183.5,936,322.9,990,499.4,990c176.5,0,320.5-52.1,320.5-128.5c0-48.7-62.9-89.1-156.4-111L654.1,793.6z"/></g>
</svg>