<?xml version="1.0" encoding="utf-8"?>
<!-- Svg Vector Icons : http://www.onlinewebfonts.com/icon -->
<!DOCTYPE svg PUBLIC "-//W3C//DTD SVG 1.1//EN" "http://www.w3.org/Graphics/SVG/1.1/DTD/svg11.dtd">
<svg version="1.1" xmlns="http://www.w3.org/2000/svg" xmlns:xlink="http://www.w3.org/1999/xlink" x="0px" y="0px" viewBox="0 0 1000 1000" enable-background="new 0 0 1000 1000" xml:space="preserve">
<metadata> Svg Vector Icons : http://www.onlinewebfonts.com/icon </metadata>
<g><path d="M500,990C229.4,990,10,770.6,10,500C10,229.4,229.4,10,500,10c270.6,0,490,219.4,490,490C990,770.6,770.6,990,500,990L500,990z M500,26.3C238.4,26.3,26.3,238.4,26.3,500S238.4,973.7,500,973.7S973.7,761.6,973.7,500S761.6,26.3,500,26.3L500,26.3z M500,663.3c-13.5,0-24.5-11-24.5-24.5s11-24.5,24.5-24.5s24.5,11,24.5,24.5S513.5,663.3,500,663.3L500,663.3z M500,573.5c-9,0-16.3-7.3-16.3-16.3L475.5,353c0-9,11-16.3,24.5-16.3c13.5,0,24.5,7.3,24.5,16.3l-8.2,204.2C516.3,566.2,509,573.5,500,573.5L500,573.5z"/></g>
</svg>