<?xml version="1.0" encoding="iso-8859-1"?>
<!-- Generator: Adobe Illustrator 16.0.0, SVG Export Plug-In . SVG Version: 6.00 Build 0)  -->
<!DOCTYPE svg PUBLIC "-//W3C//DTD SVG 1.1//EN" "http://www.w3.org/Graphics/SVG/1.1/DTD/svg11.dtd">
<svg version="1.1" id="Capa_1" xmlns="http://www.w3.org/2000/svg" xmlns:xlink="http://www.w3.org/1999/xlink" x="0px" y="0px"
	 width="433.322px" height="433.322px" viewBox="0 0 433.322 433.322" style="enable-background:new 0 0 433.322 433.322;"
	 xml:space="preserve">
<g>
	<g>
		<path style="fill:#030303;" d="M398.168,231.805c0-100.082-81.425-181.512-181.513-181.512
			c-100.082,0-181.513,81.43-181.513,181.512c0,53.961,23.696,102.473,61.2,135.746l-45.758,45.761l8.277,8.28l46.059-46.053
			l-4.174-4.18c31.46,26.188,71.873,41.958,115.91,41.958c44.018,0,84.409-15.759,115.87-41.913l-4.134,4.135l37.676,37.676
			l8.279-8.279l-37.379-37.373C374.473,334.277,398.168,285.771,398.168,231.805z M46.854,231.805
			c0-93.632,76.169-169.802,169.802-169.802c93.627,0,169.803,76.17,169.803,169.802c0,93.627-76.176,169.803-169.803,169.803
			C123.023,401.607,46.854,325.432,46.854,231.805z"/>
		<polygon style="fill:#030303;" points="222.511,217.67 222.511,107.421 210.8,107.421 210.8,245.939 272.417,184.325 
			264.138,176.046 		"/>
		<path style="fill:#030303;" d="M119.944,32.318c-13.274-13.274-30.915-20.582-49.681-20.582s-36.415,7.308-49.681,20.582
			C7.313,45.592,0,63.232,0,81.999s7.308,36.412,20.582,49.681l4.14,4.14l99.368-99.361L119.944,32.318z M24.919,119.057
			c-8.56-10.435-13.208-23.386-13.208-37.058c0-15.639,6.09-30.349,17.148-41.404C39.92,29.542,54.624,23.446,70.263,23.446
			c13.672,0,26.629,4.649,37.064,13.209L24.919,119.057z"/>
		<path style="fill:#030303;" d="M412.737,32.318C399.46,19.043,381.82,11.73,363.054,11.73s-36.412,7.313-49.672,20.587
			l-4.141,4.14l99.362,99.367l4.134-4.146c13.277-13.274,20.585-30.92,20.585-49.687C433.316,63.227,426.009,45.584,412.737,32.318z
			 M408.392,119.057l-82.396-82.402c10.436-8.56,23.387-13.215,37.059-13.215c15.639,0,30.346,6.096,41.404,17.154
			c11.059,11.062,17.148,25.76,17.148,41.404C421.606,95.671,416.952,108.622,408.392,119.057z"/>
	</g>
</g>
<g>
</g>
<g>
</g>
<g>
</g>
<g>
</g>
<g>
</g>
<g>
</g>
<g>
</g>
<g>
</g>
<g>
</g>
<g>
</g>
<g>
</g>
<g>
</g>
<g>
</g>
<g>
</g>
<g>
</g>
</svg>
