<?xml version="1.0" encoding="iso-8859-1"?>
<!-- Generator: Adobe Illustrator 18.1.1, SVG Export Plug-In . SVG Version: 6.00 Build 0)  -->
<svg version="1.1" id="Capa_1" xmlns="http://www.w3.org/2000/svg" xmlns:xlink="http://www.w3.org/1999/xlink" x="0px" y="0px"
	 viewBox="0 0 483.862 483.862" style="enable-background:new 0 0 483.862 483.862;" xml:space="preserve">
<g>
	<g>
		<path style="fill:#010002;" d="M243.443,86.647c-98.608,0-178.829,80.221-178.829,178.829s80.221,178.829,178.829,178.829
			c98.6,0,178.829-80.221,178.829-178.829S342.042,86.647,243.443,86.647z M243.443,428.047
			c-89.642,0-162.572-72.93-162.572-162.572s72.93-162.571,162.572-162.571s162.572,72.93,162.572,162.571
			C406.014,355.125,333.085,428.047,243.443,428.047z"/>
		<path style="fill:#010002;" d="M324.647,185.262l-87.659,87.65l-60.347-60.363c-3.186-3.178-8.316-3.178-11.494,0
			c-1.593,1.585-2.382,3.666-2.382,5.747c0,2.089,0.797,4.17,2.382,5.747l66.093,66.11c3.178,3.178,8.307,3.178,11.502,0
			l93.397-93.405c3.178-3.178,3.186-8.316,0-11.494C332.963,182.084,327.817,182.084,324.647,185.262z"/>
		<path style="fill:#010002;" d="M157.133,71.861c0-2.154-0.854-4.227-2.382-5.747c-17.119-17.119-39.887-26.556-64.102-26.556
			s-46.975,9.429-64.094,26.556C9.437,83.233,0.008,105.993,0,130.208c0,24.215,9.429,46.975,26.556,64.102
			c1.585,1.585,3.666,2.382,5.747,2.382c2.081,0,4.162-0.797,5.747-2.382L154.752,77.616
			C156.28,76.088,157.133,74.023,157.133,71.861z M32.62,176.768c-10.6-13.16-16.355-29.409-16.355-46.552
			c0-19.866,7.738-38.546,21.793-52.6s32.734-21.793,52.6-21.793c17.135,0,33.384,5.755,46.552,16.355L32.62,176.768z"/>
		<path style="fill:#010002;" d="M457.314,66.122c-17.119-17.119-39.887-26.556-64.102-26.556s-46.967,9.429-64.094,26.556
			c-1.528,1.528-2.382,3.593-2.382,5.747c0,2.154,0.845,4.227,2.382,5.747L445.812,194.31c1.577,1.585,3.666,2.382,5.747,2.382
			s4.17-0.797,5.747-2.382c17.119-17.119,26.556-39.887,26.556-64.102C483.87,106.009,474.44,83.241,457.314,66.122z
			 M451.25,176.768L346.667,72.178c13.16-10.6,29.417-16.355,46.552-16.355c19.874,0,38.562,7.738,52.608,21.793
			c14.046,14.054,21.793,32.726,21.793,52.6C467.613,147.351,461.849,163.608,451.25,176.768z"/>
	</g>
</g>
<g>
</g>
<g>
</g>
<g>
</g>
<g>
</g>
<g>
</g>
<g>
</g>
<g>
</g>
<g>
</g>
<g>
</g>
<g>
</g>
<g>
</g>
<g>
</g>
<g>
</g>
<g>
</g>
<g>
</g>
</svg>
