<?xml version="1.0" encoding="iso-8859-1"?>
<!-- Generator: Adobe Illustrator 19.0.0, SVG Export Plug-In . SVG Version: 6.00 Build 0)  -->
<svg version="1.1" id="Capa_1" xmlns="http://www.w3.org/2000/svg" xmlns:xlink="http://www.w3.org/1999/xlink" x="0px" y="0px"
	 viewBox="0 0 384.97 384.97" style="enable-background:new 0 0 384.97 384.97;" xml:space="preserve">
<g>
	<path id="Loop" d="M360.909,17.934H24.061C10.767,17.934,0,28.713,0,41.995V258.54c0,13.293,10.767,24.061,24.061,24.061h60.152
		c7.711,0,12.03-5.45,12.03-12.03c0-6.581-4.09-12.187-12.03-12.187H38.738c-8.036,0-14.557-6.52-14.557-14.557V57.093
		c0-8.036,6.52-14.557,14.557-14.557l307.627-0.373c8.036,0,14.557,6.52,14.557,14.557v187.107c0,8.036-6.52,14.557-14.557,14.557
		H209.556l62.413-63.303c4.692-4.752,4.692-12.439,0-17.191c-4.704-4.74-12.319-4.74-17.011,0l-83.009,84.2
		c-4.692,4.74-4.692,12.439,0,17.191c0,0,0,0,0.012,0l82.997,84.2c4.692,4.74,12.319,4.74,17.011,0
		c4.692-4.752,4.692-12.439,0-17.179l-62.774-63.688h151.714c13.293,0,24.061-10.767,24.061-24.061V42.007
		C384.97,28.713,374.203,17.934,360.909,17.934z"/>
	<g>
	</g>
	<g>
	</g>
	<g>
	</g>
	<g>
	</g>
	<g>
	</g>
	<g>
	</g>
</g>
<g>
</g>
<g>
</g>
<g>
</g>
<g>
</g>
<g>
</g>
<g>
</g>
<g>
</g>
<g>
</g>
<g>
</g>
<g>
</g>
<g>
</g>
<g>
</g>
<g>
</g>
<g>
</g>
<g>
</g>
</svg>
